<svg width="414" height="414" viewBox="0 0 414 414" fill="none" xmlns="http://www.w3.org/2000/svg">
<g filter="url(#filter0_d_87_232)">
<path d="M181.604 326.448C247.591 340.474 312.454 298.351 326.48 232.364C340.506 166.376 298.384 101.513 232.396 87.4867C166.409 73.4607 101.545 115.584 87.5194 181.571C73.4934 247.558 115.616 312.422 181.604 326.448Z" fill="#0D5AB9"/>
<path d="M170.306 127.809C195.483 121.267 218.846 123.26 240.395 133.787C261.944 144.314 281.679 163.375 299.599 190.971C306.141 216.148 295.614 237.696 268.019 255.617C240.423 273.538 210.766 273.181 179.047 254.546C158.708 238.329 145.267 217.632 138.725 192.455C132.183 167.278 142.71 145.73 170.306 127.809Z" fill="#10B981"/>
<path d="M136.375 245.475C151.025 260.482 169.125 273.249 190.674 283.776C212.223 294.303 229.896 295.086 243.694 286.126C257.492 277.166 263.964 260.702 263.112 236.734C262.26 212.767 251.06 195.519 229.511 184.992C207.962 174.465 187.444 173.077 167.956 180.828C148.469 188.58 137.942 210.128 136.375 245.475Z" fill="#10B981"/>
<path d="M176.491 182.643C181.204 183.644 185.837 180.636 186.839 175.922C187.841 171.209 184.832 166.576 180.119 165.574C175.405 164.572 170.772 167.581 169.77 172.294C168.768 177.008 171.777 181.641 176.491 182.643Z" fill="#1F2937"/>
<path d="M244.765 197.155C249.478 198.157 254.111 195.148 255.113 190.434C256.115 185.721 253.106 181.088 248.393 180.086C243.68 179.084 239.046 182.093 238.045 186.806C237.043 191.52 240.052 196.153 244.765 197.155Z" fill="#1F2937"/>
<path d="M160.7 214.966C184.311 243.771 212.758 249.818 246.044 233.107" stroke="#1F2937"/>
<path opacity="0.6" d="M161.425 211.552C168.967 213.155 176.38 208.341 177.983 200.8C179.586 193.259 174.772 185.846 167.23 184.243C159.689 182.64 152.276 187.454 150.673 194.995C149.07 202.536 153.884 209.949 161.425 211.552Z" fill="#FCA5A5"/>
<path opacity="0.6" d="M246.77 229.693C254.311 231.296 261.724 226.482 263.327 218.94C264.93 211.399 260.116 203.986 252.575 202.383C245.033 200.78 237.62 205.594 236.017 213.135C234.414 220.677 239.228 228.09 246.77 229.693Z" fill="#FCA5A5"/>
<path d="M234.21 78.9523C238.924 79.9542 243.557 76.9454 244.559 72.232C245.561 67.5186 242.552 62.8855 237.839 61.8836C233.125 60.8818 228.492 63.8906 227.49 68.604C226.488 73.3173 229.497 77.9505 234.21 78.9523Z" fill="#DBEAFE"/>
<path d="M102.774 193.733C107.487 194.735 112.12 191.727 113.122 187.013C114.124 182.3 111.115 177.667 106.402 176.665C101.688 175.663 97.0553 178.672 96.0534 183.385C95.0515 188.098 98.0603 192.732 102.774 193.733Z" fill="#DBEAFE"/>
<path d="M176.161 352.051C180.875 353.053 185.508 350.044 186.51 345.331C187.512 340.618 184.503 335.984 179.789 334.983C175.076 333.981 170.443 336.99 169.441 341.703C168.439 346.416 171.448 351.049 176.161 352.051Z" fill="#DBEAFE"/>
<path d="M307.598 237.27C312.312 238.272 316.945 235.263 317.947 230.55C318.948 225.837 315.94 221.203 311.226 220.202C306.513 219.2 301.88 222.208 300.878 226.922C299.876 231.635 302.885 236.268 307.598 237.27Z" fill="#DBEAFE"/>
<path opacity="0.5" d="M132.541 137.621C146.339 128.66 158.322 128.234 168.492 136.343C178.662 144.451 177.453 150.141 164.864 153.411C152.276 156.682 141.501 151.419 132.541 137.621Z" fill="white"/>
<path opacity="0.5" d="M276.346 132.508C290.144 123.548 302.127 123.122 312.297 131.23C322.467 139.338 321.257 145.028 308.669 148.299C296.081 151.569 285.306 146.306 276.346 132.508Z" fill="white"/>
<path opacity="0.5" d="M222.998 299.566C236.795 290.606 248.779 290.18 258.949 298.288C269.119 306.396 267.909 312.086 255.321 315.357C242.732 318.628 231.958 313.364 222.998 299.566Z" fill="white"/>
</g>
<defs>
<filter id="filter0_d_87_232" x="-3.96753" y="7.62939e-06" width="421.935" height="421.935" filterUnits="userSpaceOnUse" color-interpolation-filters="sRGB">
<feFlood flood-opacity="0" result="BackgroundImageFix"/>
<feColorMatrix in="SourceAlpha" type="matrix" values="0 0 0 0 0 0 0 0 0 0 0 0 0 0 0 0 0 0 127 0" result="hardAlpha"/>
<feOffset dy="4"/>
<feGaussianBlur stdDeviation="2"/>
<feComposite in2="hardAlpha" operator="out"/>
<feColorMatrix type="matrix" values="0 0 0 0 0 0 0 0 0 0 0 0 0 0 0 0 0 0 0.25 0"/>
<feBlend mode="normal" in2="BackgroundImageFix" result="effect1_dropShadow_87_232"/>
<feBlend mode="normal" in="SourceGraphic" in2="effect1_dropShadow_87_232" result="shape"/>
</filter>
</defs>
</svg>
